<svg width="40" height="40" viewBox="0 0 40 40" fill="none" xmlns="http://www.w3.org/2000/svg">
  <rect width="40" height="40" rx="8" fill="#4F6BED"/>
  <path d="M12 15C12 13.3431 13.3431 12 15 12H25C26.6569 12 28 13.3431 28 15V25C28 26.6569 26.6569 28 25 28H15C13.3431 28 12 26.6569 12 25V15Z" fill="white" fill-opacity="0.2"/>
  <path d="M20 10L24 16H16L20 10Z" fill="white"/>
  <circle cx="20" cy="22" r="6" fill="white"/>
  <path d="M18 22C18 21.4477 18.4477 21 19 21H21C21.5523 21 22 21.4477 22 22V24C22 24.5523 21.5523 25 21 25H19C18.4477 25 18 24.5523 18 24V22Z" fill="#4F6BED"/>
  <path d="M17 19C17 18.4477 17.4477 18 18 18H22C22.5523 18 23 18.4477 23 19C23 19.5523 22.5523 20 22 20H18C17.4477 20 17 19.5523 17 19Z" fill="#4F6BED"/>
</svg> 